<?xml version="1.0" encoding="utf-8"?>
<!-- Generator: Adobe Illustrator 23.0.0, SVG Export Plug-In . SVG Version: 6.00 Build 0)  -->
<svg version="1.1" id="Calque_1" xmlns="http://www.w3.org/2000/svg" xmlns:xlink="http://www.w3.org/1999/xlink" x="0px" y="0px"
	 viewBox="0 0 512 512" style="enable-background:new 0 0 512 512;" xml:space="preserve">
<style type="text/css">
	.st0{fill:#FFFFFF;}
</style>
<g>
	<path class="st0" d="M398.6,0H113.4C51,0,0,51,0,113.4v285.2C0,461,51,512,113.4,512h285.2C461,512,512,461,512,398.6V113.4
		C512,51,461,0,398.6,0z M397.7,186c0.1,3,0.2,6,0.2,9.1c0,93.2-71,200.7-200.7,200.7c-39.9,0-76.9-11.6-108.1-31.8
		c5.6,0.7,11.2,0.9,16.7,0.9c33,0,63.4-11.3,87.6-30.2c-30.9-0.7-57-21.1-65.9-49c4.3,0.9,8.8,1.3,13.2,1.3c6.5,0,12.8-0.9,18.6-2.6
		c-32.2-6.5-56.5-35-56.5-69.1c0-0.3,0-0.7,0-0.9c9.5,5.2,20.4,8.5,31.9,8.8c-19-12.6-31.3-34.2-31.3-58.7c0-12.9,3.5-25.1,9.6-35.3
		C148,172,199.9,200,258.5,203c-1.1-5.1-1.8-10.6-1.8-16.2c0-38.8,31.5-70.6,70.6-70.6c20.3,0,38.7,8.5,51.5,22.3
		c16.2-3.1,31.2-9,44.8-17.2c-5.2,16.4-16.4,30.2-31,39c14.3-1.7,27.9-5.6,40.4-11.2C423.3,163.6,411.5,176,397.7,186z"/>
</g>
</svg>
