<?xml version="1.0" encoding="utf-8"?>
<!-- Generator: Adobe Illustrator 23.0.0, SVG Export Plug-In . SVG Version: 6.00 Build 0)  -->
<svg version="1.1" id="Calque_1" xmlns="http://www.w3.org/2000/svg" xmlns:xlink="http://www.w3.org/1999/xlink" x="0px" y="0px"
	 viewBox="0 0 132 85" style="enable-background:new 0 0 132 85;" xml:space="preserve">
<style type="text/css">
	.st0{fill:#FFFFFF;}
</style>
<g>
	<path class="st0" d="M12.05,37.35c-2.17,0-4.17-0.32-6-0.95c-1.83-0.63-3.3-1.44-4.4-2.42C0.55,32.99,0,31.95,0,30.85
		c0-0.57,0.15-1.17,0.45-1.83c0.3-0.65,0.71-1.21,1.23-1.67c0.52-0.47,1.09-0.7,1.73-0.7c0.6,0,1.16,0.18,1.67,0.55
		c0.52,0.37,1.08,0.8,1.7,1.3c0.62,0.5,1.33,0.93,2.15,1.3c0.82,0.37,1.81,0.55,2.98,0.55c0.77,0,1.52-0.11,2.27-0.33
		c0.75-0.22,1.37-0.57,1.85-1.05c0.48-0.48,0.73-1.13,0.73-1.92c0-0.87-0.28-1.61-0.85-2.23c-0.57-0.62-1.33-1.18-2.27-1.68
		c-0.95-0.5-1.98-1.01-3.1-1.52c-1.12-0.52-2.24-1.08-3.38-1.7c-1.13-0.62-2.18-1.35-3.13-2.2c-0.95-0.85-1.71-1.88-2.27-3.08
		c-0.57-1.2-0.85-2.63-0.85-4.3c0-1.87,0.37-3.46,1.1-4.77c0.73-1.32,1.72-2.38,2.95-3.2c1.23-0.82,2.61-1.42,4.13-1.8
		C10.59,0.19,12.13,0,13.7,0c0.67,0,1.55,0.05,2.65,0.15c1.1,0.1,2.21,0.3,3.33,0.6c1.12,0.3,2.06,0.74,2.83,1.33
		c0.77,0.58,1.15,1.36,1.15,2.32c0,0.43-0.11,0.98-0.33,1.63c-0.22,0.65-0.55,1.23-1,1.73c-0.45,0.5-1.04,0.75-1.77,0.75
		c-0.6,0-1.16-0.16-1.67-0.48c-0.52-0.32-1.17-0.63-1.95-0.95C16.14,6.76,15.07,6.6,13.7,6.6c-1.17,0-2.13,0.14-2.88,0.42
		c-0.75,0.28-1.29,0.65-1.63,1.1C8.87,8.58,8.7,9.07,8.7,9.6c0,0.7,0.28,1.31,0.85,1.83c0.57,0.52,1.33,1,2.27,1.45
		c0.95,0.45,1.98,0.92,3.1,1.4c1.12,0.48,2.24,1.05,3.38,1.7c1.13,0.65,2.17,1.42,3.13,2.33c0.95,0.9,1.71,2,2.27,3.3
		c0.57,1.3,0.85,2.85,0.85,4.65c0,2.4-0.54,4.43-1.63,6.08c-1.08,1.65-2.56,2.9-4.42,3.75C16.63,36.93,14.48,37.35,12.05,37.35z"/>
	<path class="st0" d="M32.3,36.85c-0.97,0-1.86-0.2-2.68-0.6c-0.82-0.4-1.22-1-1.22-1.8V2.65c0-0.83,0.41-1.43,1.22-1.8
		c0.82-0.37,1.71-0.55,2.68-0.55c0.97,0,1.86,0.18,2.67,0.55c0.82,0.37,1.23,0.97,1.23,1.8v31.8c0,0.8-0.41,1.4-1.23,1.8
		C34.16,36.65,33.27,36.85,32.3,36.85z"/>
	<path class="st0" d="M45.5,36.85c-0.97,0-1.86-0.2-2.68-0.6c-0.82-0.4-1.22-1-1.22-1.8V4.2c0-1.43,0.41-2.44,1.22-3.02
		c0.82-0.58,1.71-0.88,2.68-0.88c0.93,0,1.73,0.07,2.38,0.22c0.65,0.15,1.26,0.5,1.82,1.05C50.27,2.13,50.88,3,51.55,4.2l5.15,9
		l5.15-9c0.7-1.2,1.32-2.08,1.88-2.63c0.55-0.55,1.15-0.9,1.8-1.05c0.65-0.15,1.44-0.22,2.38-0.22c1,0,1.9,0.29,2.7,0.88
		c0.8,0.58,1.2,1.59,1.2,3.02v30.25c0,0.8-0.41,1.4-1.23,1.8c-0.82,0.4-1.71,0.6-2.67,0.6c-0.97,0-1.86-0.2-2.67-0.6
		c-0.82-0.4-1.23-1-1.23-1.8V15.7l-4.8,8.2c-0.33,0.53-0.73,0.91-1.2,1.13c-0.47,0.22-0.93,0.33-1.4,0.33c-0.43,0-0.88-0.1-1.33-0.3
		c-0.45-0.2-0.83-0.58-1.13-1.15l-4.75-8.7v19.25c0,0.8-0.41,1.4-1.23,1.8C47.36,36.65,46.47,36.85,45.5,36.85z"/>
	<path class="st0" d="M89.05,37.15c-2.3,0-4.38-0.38-6.22-1.15c-1.85-0.77-3.32-2.02-4.4-3.75c-1.08-1.73-1.63-4.03-1.63-6.9V12.1
		c0-2.87,0.54-5.17,1.63-6.9c1.08-1.73,2.55-2.98,4.4-3.75c1.85-0.77,3.92-1.15,6.22-1.15c2.3,0,4.38,0.38,6.25,1.15
		c1.87,0.77,3.34,2.02,4.43,3.75c1.08,1.73,1.63,4.03,1.63,6.9v13.25c0,2.87-0.54,5.17-1.63,6.9c-1.08,1.73-2.56,2.98-4.43,3.75
		C93.43,36.77,91.35,37.15,89.05,37.15z M89.05,30.35c1.4,0,2.5-0.4,3.3-1.2c0.8-0.8,1.2-2.07,1.2-3.8V12.1c0-1.73-0.4-3-1.2-3.8
		c-0.8-0.8-1.9-1.2-3.3-1.2c-1.4,0-2.49,0.4-3.27,1.2c-0.78,0.8-1.17,2.07-1.17,3.8v13.25c0,1.73,0.39,3,1.17,3.8
		C86.56,29.95,87.65,30.35,89.05,30.35z"/>
	<path class="st0" d="M110.25,36.85c-0.97,0-1.86-0.2-2.68-0.6c-0.82-0.4-1.22-1-1.22-1.8V2.7c0-0.83,0.41-1.44,1.22-1.83
		c0.82-0.38,1.71-0.57,2.68-0.57c0.93,0,1.71,0.07,2.32,0.22c0.62,0.15,1.18,0.49,1.7,1.03c0.52,0.53,1.09,1.42,1.73,2.65l8.1,15.45
		v-17c0-0.83,0.41-1.43,1.22-1.8c0.82-0.37,1.71-0.55,2.68-0.55c0.97,0,1.86,0.18,2.67,0.55c0.82,0.37,1.23,0.97,1.23,1.8v31.8
		c0,0.8-0.41,1.4-1.23,1.8c-0.82,0.4-1.71,0.6-2.67,0.6c-0.9,0-1.73-0.13-2.5-0.4c-0.77-0.27-1.38-0.83-1.85-1.7l-9.5-17.3v17
		c0,0.8-0.41,1.4-1.23,1.8C112.11,36.65,111.21,36.85,110.25,36.85z"/>
	<path class="st0" d="M13.6,85.15c-2.3,0-4.38-0.38-6.22-1.15c-1.85-0.77-3.32-2.02-4.4-3.75c-1.08-1.73-1.63-4.03-1.63-6.9V60.1
		c0-2.87,0.54-5.17,1.63-6.9c1.08-1.73,2.54-2.98,4.38-3.75c1.83-0.77,3.83-1.15,6-1.15c2.4,0,4.54,0.39,6.43,1.17
		c1.88,0.78,3.38,1.91,4.48,3.38c1.1,1.47,1.65,3.27,1.65,5.4c0,1.5-0.32,2.49-0.95,2.98c-0.63,0.48-1.62,0.73-2.95,0.73
		c-1.03,0-1.93-0.17-2.7-0.5c-0.77-0.33-1.17-0.95-1.2-1.85c0-0.6-0.07-1.25-0.22-1.95c-0.15-0.7-0.53-1.3-1.15-1.8
		c-0.62-0.5-1.64-0.75-3.07-0.75c-1.43,0-2.54,0.41-3.33,1.23c-0.78,0.82-1.17,2.07-1.17,3.77v13.25c0,1.7,0.39,2.96,1.17,3.77
		c0.78,0.82,1.88,1.23,3.27,1.23c1.4,0,2.5-0.41,3.3-1.23c0.8-0.82,1.2-2.07,1.2-3.77v-1.7h-2.95c-0.73,0-1.31-0.31-1.73-0.92
		c-0.42-0.62-0.63-1.31-0.63-2.08c0-0.73,0.21-1.42,0.63-2.05c0.42-0.63,0.99-0.95,1.73-0.95h8.4c0.77,0,1.35,0.24,1.75,0.73
		c0.4,0.48,0.6,1.06,0.6,1.73v5.25c0,2.87-0.54,5.17-1.63,6.9c-1.08,1.73-2.56,2.98-4.43,3.75C17.98,84.77,15.9,85.15,13.6,85.15z"
		/>
	<path class="st0" d="M32.9,84.85c-0.7,0-1.44-0.14-2.23-0.42c-0.78-0.28-1.44-0.67-1.98-1.15c-0.53-0.48-0.8-1.02-0.8-1.63
		c0-0.1,0.03-0.28,0.1-0.55l9.3-30.5c0.27-0.87,0.9-1.52,1.9-1.95c1-0.43,2.07-0.65,3.2-0.65c1.17,0,2.24,0.22,3.22,0.65
		c0.98,0.43,1.61,1.08,1.88,1.95l9.35,30.5c0.07,0.27,0.1,0.45,0.1,0.55c0,0.6-0.27,1.14-0.8,1.63c-0.53,0.48-1.18,0.87-1.95,1.15
		c-0.77,0.28-1.52,0.42-2.25,0.42c-0.63,0-1.17-0.11-1.63-0.33c-0.45-0.22-0.76-0.59-0.92-1.13l-1.7-6.25H37.15l-1.7,6.25
		c-0.13,0.53-0.43,0.91-0.9,1.13C34.08,84.74,33.53,84.85,32.9,84.85z M38.75,71.15h7.3l-3.65-13.4L38.75,71.15z"/>
	<path class="st0" d="M63.75,84.85c-0.97,0-1.86-0.2-2.68-0.6c-0.82-0.4-1.22-1-1.22-1.8V52.2c0-1.43,0.41-2.44,1.22-3.02
		c0.82-0.58,1.71-0.88,2.68-0.88c0.93,0,1.73,0.07,2.38,0.22c0.65,0.15,1.26,0.5,1.82,1.05c0.57,0.55,1.18,1.42,1.85,2.63l5.15,9
		l5.15-9c0.7-1.2,1.32-2.08,1.88-2.63c0.55-0.55,1.15-0.9,1.8-1.05c0.65-0.15,1.44-0.22,2.38-0.22c1,0,1.9,0.29,2.7,0.88
		c0.8,0.58,1.2,1.59,1.2,3.02v30.25c0,0.8-0.41,1.4-1.23,1.8c-0.82,0.4-1.71,0.6-2.67,0.6c-0.97,0-1.86-0.2-2.67-0.6
		c-0.82-0.4-1.23-1-1.23-1.8V63.7l-4.8,8.2c-0.33,0.53-0.73,0.91-1.2,1.13c-0.47,0.22-0.93,0.33-1.4,0.33c-0.43,0-0.88-0.1-1.33-0.3
		c-0.45-0.2-0.83-0.58-1.13-1.15l-4.75-8.7v19.25c0,0.8-0.41,1.4-1.23,1.8C65.61,84.65,64.72,84.85,63.75,84.85z"/>
	<path class="st0" d="M98.85,84.85c-0.83,0-1.61-0.2-2.33-0.6c-0.72-0.4-1.07-1-1.07-1.8V50.7c0-0.8,0.36-1.4,1.07-1.8
		c0.72-0.4,1.49-0.6,2.33-0.6h17.8c0.83,0,1.43,0.36,1.8,1.07c0.37,0.72,0.55,1.48,0.55,2.27c0,0.93-0.2,1.74-0.6,2.43
		c-0.4,0.68-0.98,1.02-1.75,1.02h-13.4v8.45h7.5c0.77,0,1.35,0.31,1.75,0.92c0.4,0.62,0.6,1.33,0.6,2.13c0,0.67-0.18,1.33-0.55,1.98
		c-0.37,0.65-0.97,0.98-1.8,0.98h-7.5v8.5h13.4c0.77,0,1.35,0.34,1.75,1.02c0.4,0.68,0.6,1.49,0.6,2.42c0,0.8-0.18,1.56-0.55,2.27
		c-0.37,0.72-0.97,1.08-1.8,1.08H98.85z"/>
</g>
</svg>
